PathFileType	4	(X/Y/Z)	D:\Long Term Storage\D'Arcy Smith\Coord17.trc
DataRate	CameraRate	NumFrames	NumMarkers	Units	OrigDataRate	OrigDataStartFrame	OrigNumFrames
120.00	120.00	      116	4	mm	120.00	607	      4853
Frame#	Time	M1			M2			M3			M4			
		X1	Y1	Z1	X2	Y2	Z2	X3	Y3	Z3	X4	Y4	Z4	

607	5.050	595.77905	349.93326	448.45236	974.78119	325.65601	321.21436							
608	5.058	593.82404	355.82800	460.72400	976.09778	327.33136	330.36230							
609	5.067	592.09644	361.84631	473.67310	977.25677	329.19962	338.66595							
610	5.075	590.10950	367.95203	484.01611	978.48883	331.15408	345.61612							
611	5.083	588.21771	373.84253	493.55255	979.38824	333.06351	352.03323							
612	5.092	586.53503	379.85013	502.23560	980.30249	334.75916	357.55203							
613	5.100	584.90955	385.25204	509.96994	981.04443	336.38272	362.47449							
614	5.108	583.71570	391.09125	516.06763	981.60925	337.76425	366.12769							
615	5.117	582.08246	395.23349	521.94934	981.89056	338.96307	369.25168							
616	5.125	580.77704	399.48471	526.73828	982.18329	339.71851	371.18921							
617	5.133	579.79321	403.31802	530.21063	982.23206	340.24466	372.55341							
618	5.142	578.94019	406.33514	533.45154	982.13910	340.51303	373.05255							
619	5.150	578.07526	408.99405	535.37378	981.92737	340.43903	372.49579							
620	5.158	577.45831	410.77045	536.84619	981.47498	340.15540	371.23621							
621	5.167	576.85132	411.77905	537.25299	980.96674	339.65979	369.37604							
622	5.175	576.30750	412.12625	536.65594	980.40845	338.94250	366.97003							
623	5.183	575.71661	411.65540	534.77484	979.70770	337.94119	363.45068							
624	5.192	575.24176	410.41241	532.37073	978.90247	336.82184	359.70279							
625	5.200	574.87054	408.53226	528.93518	978.16278	335.63110	355.22870							
626	5.208	574.55957	405.81107	524.36145	977.33246	334.30511	350.00009							
627	5.217	574.15833	402.46179	518.76251	976.35223	333.15579	344.14386							
628	5.225	573.79602	398.25073	511.65216	975.44690	331.94904	338.11450							
629	5.233	573.73389	393.65237	503.94101	974.37769	330.79858	331.49814							
630	5.242	573.85333	388.28470	494.96432	973.28223	329.71692	324.72354							
631	5.250	574.11688	382.72202	484.98453	972.29889	328.89014	317.23355							
632	5.258	574.13818	376.56525	472.83316	971.52130	328.13245	309.20776							
633	5.267	574.38507	370.78271	459.18384	970.43799	327.84192	300.94632							
634	5.275	574.96674	364.74600	445.63318	969.46887	327.39813	292.72653							
635	5.283	575.45630	358.92902	431.05197	968.62573	327.47134	283.61987							
636	5.292	575.98254	353.42603	415.46332	967.70825	327.69565	274.56387							
637	5.300	576.35138	348.26340	398.87799	966.79010	328.38831	264.93997							
638	5.308	576.56689	343.48697	381.90894	965.95374	329.44897	255.04408							
639	5.317	576.46954	339.25168	363.12299	965.09723	330.81952	244.71771							
640	5.325	576.58191	336.01440	343.78824	964.42078	332.75748	232.72549							
641	5.333	576.32196	333.73001	324.32712	963.65027	334.95233	222.41644							
642	5.342	576.03229	332.31430	304.07358	963.03253	337.46967	211.03055							
643	5.350	575.70581	332.04584	283.61801	962.36426	340.93076	199.88028							
644	5.358	575.42108	333.24261	262.79620	961.77673	344.51987	187.87596							
645	5.367	574.93530	334.99298	242.13364	961.29749	348.79861	175.77740							
646	5.375	574.22455	337.75546	221.56779	960.87445	353.47632	163.45354							
647	5.383	573.51178	341.51111	201.34955	960.40448	358.61182	150.95361							
648	5.392	572.78241	346.16074	182.28586	959.96008	364.00256	138.33646							
649	5.400	571.74982	351.90576	162.25285	959.60944	370.02368	126.08305							
650	5.408	570.53845	357.92236	144.83183	959.38470	376.24979	113.69612							
651	5.417	569.71246	365.68784	126.84900	959.13361	382.90170	100.49175							
652	5.425	568.75092	373.60876	110.58412	958.85181	389.50723	88.27930							
653	5.433	567.42944	382.52643	95.38036	958.87946	396.37680	76.50185							
654	5.442	566.64752	391.07684	81.08979	958.77271	403.49744	64.87610							
655	5.450	565.65460	400.41461	68.35650	958.67303	410.62274	53.68508							
656	5.458	564.70026	410.17200	57.48702	958.62573	417.95227	43.11209							
657	5.467	563.76501	419.61673	47.48073	958.55896	425.18631	32.86366							
658	5.475	563.09686	428.83215	38.41489	958.60980	432.44449	23.32269							
659	5.483	562.21948	437.27707	29.81294	958.57300	439.42245	14.23278							
660	5.492	561.93921	445.86441	23.03507	958.59088	446.39865	5.75373							
661	5.500	561.69800	453.87375	16.83915	958.69275	453.02826	-2.05234							
662	5.508	561.73120	461.11859	11.64763	958.35687	459.50262	-9.64587							
663	5.517	562.26733	467.59793	7.49898	958.25751	465.83347	-17.11588							
664	5.525	562.84698	473.12540	4.17473	958.28717	471.52573	-22.26123							
665	5.533	563.73077	477.91461	1.56104	958.21381	476.63730	-27.10491							
666	5.542	564.29492	482.11160	-0.99733	957.95190	481.31516	-31.31133							
667	5.550	565.49976	484.93576	-2.03168	957.85590	485.30640	-34.55568							
668	5.558	566.69336	486.79968	-2.74015	957.66467	488.44626	-37.28719							
669	5.567	568.18054	487.72751	-2.71307	957.44299	491.13412	-39.46987							
670	5.575	569.49390	487.83167	-2.34813	957.13776	492.94583	-40.92899							
671	5.583	570.80634	486.99664	-1.76368	956.80841	494.07822	-41.69866							
672	5.592	572.44025	485.32520	-0.76423	956.43970	494.47110	-41.79210							
673	5.600	573.67694	482.87534	0.22667	955.96393	494.10855	-41.41181							
674	5.608	575.64124	479.21140	3.44998	955.59766	493.01428	-40.50967							
675	5.617	577.20184	474.98837	5.64836	955.27496	491.17255	-38.91082							
676	5.625	578.48907	469.94611	8.25483	954.83478	488.79825	-36.84555							
677	5.633	580.11310	464.49167	11.92996	954.31738	485.78552	-34.29195							
678	5.642	581.58600	458.34796	15.74460	953.84631	482.13187	-31.23826							
679	5.650	582.81421	451.60709	20.18780	953.45740	478.07874	-27.69820							
680	5.658	584.15515	444.17877	25.25080	952.93896	473.48257	-23.68989							
681	5.667	585.49066	436.43643	30.61211	952.47949	468.56903	-19.55897							
682	5.675	586.99310	428.60211	37.40962	951.91925	463.08899	-14.04409							
683	5.683	588.40540	420.17789	44.69653	951.54449	457.28888	-8.69731							
684	5.692	589.61688	411.39902	52.10438	951.05823	451.41455	-3.16490							
685	5.700	590.68500	402.46161	60.77248	950.80090	445.23108	2.78371							
686	5.708	591.82861	393.26660	69.91892	950.80383	438.83380	9.62946							
687	5.717	592.91681	384.26740	80.05965	950.52734	432.37006	16.44585							
688	5.725	593.96216	375.41843	90.99100	950.33899	425.67255	23.71901							
689	5.733	594.99042	366.46552	103.21854	950.31006	419.09769	31.52482							
690	5.742	595.99011	357.95914	115.95532	950.26440	412.34174	39.75628							
691	5.750	596.92267	349.95459	129.71346	950.37494	405.70056	48.24602							
692	5.758	597.74176	342.37289	144.18033	950.23499	398.78101	56.92001							
693	5.767	598.57379	335.37766	159.40752	950.27112	392.48862	64.69370							
694	5.775	599.48883	329.12921	176.88911	951.13342	386.10754	74.66782							
695	5.783	599.75659	323.78613	191.60069	951.51660	380.03259	84.81898							
696	5.792	599.82434	318.45917	208.29819	952.02167	373.88110	95.17870							
697	5.800	600.21655	314.40778	225.76422	952.61517	367.93289	105.98796							
698	5.808	600.06000	311.25534	242.95375	953.26532	362.22980	116.93816							
699	5.817	600.00848	308.91467	260.67023	953.99701	356.85562	128.21645							
700	5.825	599.61847	307.45917	278.42590	954.91840	351.42484	142.27200							
701	5.833	599.07520	306.87109	296.17981	955.75427	346.75256	154.30365							
702	5.842	598.40735	307.30939	313.87982	956.71967	342.69339	166.11075							
703	5.850	597.75806	308.34039	331.30258	957.81671	339.03284	178.36002							
704	5.858	596.81903	310.04874	348.23203	958.81732	335.65585	189.92073							
705	5.867	595.85712	312.77414	365.01974	960.00000	332.89548	202.00459							
706	5.875	594.92615	316.07468	381.80533	961.03467	330.46671	214.32919							
707	5.883	594.02936	320.27872	400.28458	962.17023	328.63397	226.54588							
708	5.892	592.56573	325.13568	412.57834	963.31708	326.73367	239.31310							
709	5.900	591.16431	330.53259	427.31622	964.45508	325.41650	250.98230							
710	5.908	589.89520	336.47168	441.24664	965.48193	324.36630	262.87488							
711	5.917	588.65979	342.86450	454.99133	966.68945	323.70386	274.02380							
712	5.925	587.23877	349.52707	467.04810	967.83899	323.45135	284.67783							
713	5.933	585.83728	356.34100	480.56458	969.03595	323.70047	295.34494							
714	5.942	584.35443	363.14429	491.27328	970.20245	324.07715	305.50958							
715	5.950	582.83630	370.01196	500.83234	971.33704	324.87012	314.64691							
716	5.958	581.36786	376.72736	509.89197	972.53955	325.77185	323.84717							
717	5.967	579.90155	383.08020	517.74817	973.78632	327.08478	331.90503							
718	5.975	578.58435	389.16254	524.35553	974.99207	328.58801	339.50214							
719	5.983	577.31500	395.11871	530.66833	976.14203	330.10291	346.31735							
720	5.992	576.14899	400.32285	535.32611	977.25256	331.83124	352.27768							
721	6.000	575.12256	405.01416	539.63074	978.45386	333.47012	357.62244							
722	6.008	574.32190	408.98331	542.86920	979.69275	335.04138	362.15381							
